<?xml version="1.0" encoding="utf-8"?>
<!-- Generator: Adobe Illustrator 16.0.0, SVG Export Plug-In . SVG Version: 6.00 Build 0)  -->
<!DOCTYPE svg PUBLIC "-//W3C//DTD SVG 1.1//EN" "http://www.w3.org/Graphics/SVG/1.1/DTD/svg11.dtd">
<svg version="1.1" id="レイヤー_1" xmlns="http://www.w3.org/2000/svg" xmlns:xlink="http://www.w3.org/1999/xlink" x="0px"
	 y="0px" width="560px" height="517px" viewBox="0 0 560 517" enable-background="new 0 0 560 517" xml:space="preserve">
<path fill="#4B8F00" d="M493.93,147H328.628c-16.996,0-23.271,7.771-23.271,7.771L260.682,198H64.45
	C55.919,198,49,205.127,49,213.658V426.93c0,8.533,6.919,15.07,15.45,15.07h429.1c8.536,0,15.45-6.537,15.45-15.069V227.639v-13.98
	v-53.994C508.006,150.395,493.93,147,493.93,147z"/>
<g>
	<path fill="#4B8F00" d="M83.726,471.493c0-3.122,2.547-5.665,5.663-5.665c3.12,0,5.664,2.551,5.664,5.665v5.662h5.497v-5.662
		c0-6.175-5.025-11.159-11.161-11.159c-6.131,0-11.164,4.99-11.164,11.159v5.662h5.5V471.493L83.726,471.493z"/>
	<path fill="#4B8F00" d="M102.021,478.998H76.764c-1.667,0-3.021,1.359-3.021,3.02v18.018c0,1.669,1.365,3.018,3.021,3.018h25.277
		c1.666,0,3.021-1.361,3.021-3.018v-18.018C105.069,480.346,103.708,478.998,102.021,478.998L102.021,478.998z M91.867,496.408
		h-4.956l0.988-5.266c-0.848-0.507-1.455-1.458-1.455-2.511c0-1.628,1.323-2.951,2.946-2.951c1.628,0,2.949,1.323,2.949,2.951
		c0,1.084-0.573,1.997-1.457,2.511L91.867,496.408z"/>
</g>
<path fill="none" stroke="#4B8F00" stroke-width="2.1801" stroke-miterlimit="10" d="M124.294,64.901
	c0,0,24.994-48.559,62.834-24.815c37.837,23.745-0.833,71.668-2.568,74.188c-1.745,2.525-20.682,23.455-47.624,5.482
	C136.936,119.756,103.524,99.965,124.294,64.901z"/>
<path fill="#4B8F00" stroke="#4B8F00" stroke-width="1.6642" stroke-miterlimit="10" d="M195.42,33.236
	c-3.943-4.923-3.983-12.793-3.983-12.793l-3.712,4.755l-2.007-11.104c0,0-5.986,6.602-12.117,9.121
	c-6.128,2.516-18.79,7.048-24.416,15.669c0,0,27.286,12.932,41.353,13.276c0,0,4.95,13.212,13.366,19.021
	C203.903,71.182,210.604,52.173,195.42,33.236z"/>
<path fill="none" stroke="#4B8F00" stroke-width="2.1801" stroke-linecap="round" stroke-miterlimit="10" d="M162.848,81.874
	c-1.415,10.918-0.37,17.439-9.172,12.8"/>
<path fill="#4B8F00" stroke="#4B8F00" stroke-width="0.997" stroke-miterlimit="10" d="M149.846,73.025c0,0-0.703-7.215,4.731-4.969
	C160.014,70.301,154.169,77.51,149.846,73.025z"/>
<path fill="#4B8F00" stroke="#4B8F00" stroke-width="0.997" stroke-miterlimit="10" d="M172.109,82.428c0,0-0.7-7.209,4.732-4.97
	C182.273,79.704,176.432,86.912,172.109,82.428z"/>
<path fill="none" stroke="#4B8F00" stroke-width="2.1801" stroke-miterlimit="10" d="M133.586,49.631c0,0-7.744-7.484-13.771,4.905
	c0,0-5.07,8.772,3.704,11.353"/>
<path fill="none" stroke="#4B8F00" stroke-width="2.1801" stroke-miterlimit="10" d="M201.986,80.515c0,0,9.533,1.116,4.114,11.697
	c0,0-3.641,9.058-10.322,6.193"/>
<path fill="none" stroke="#4B8F00" stroke-width="2.1801" stroke-linecap="round" stroke-miterlimit="10" d="M150.204,56.694
	c0,0,3.581-4.773,10.296-0.437"/>
<path fill="none" stroke="#4B8F00" stroke-width="2.1801" stroke-linecap="round" stroke-miterlimit="10" d="M181.548,66.673
	c0,0,8.06,0.434,6.715,8.242"/>
<path fill="none" stroke="#4B8F00" stroke-width="2.1801" stroke-miterlimit="10" d="M166.32,104.706c0,0-10.293,1.737-19.254-6.073
	C147.066,98.633,147.962,120.321,166.32,104.706z"/>
<polyline fill="none" stroke="#4B8F00" stroke-width="2.1801" stroke-linecap="round" stroke-linejoin="round" stroke-miterlimit="10" points="
	123.693,109.33 72.164,147.18 61.241,104.247 46.024,104.755 61.241,161.191 70.687,163.734 106.378,142.38 66.491,199.759 "/>
<line fill="none" stroke="#4B8F00" stroke-width="2.1801" stroke-linecap="round" stroke-linejoin="round" stroke-miterlimit="10" x1="152.164" y1="159.826" x2="135.133" y2="198.277"/>
<polyline fill="none" stroke="#4B8F00" stroke-width="2" stroke-linecap="round" stroke-linejoin="round" stroke-miterlimit="10" points="
	144.422,124.471 142.878,135.569 162.488,135.051 163.051,127.125 166.616,176.857 207.659,143.397 217.107,155.221 160.952,199 
	154.13,199 152.031,158.781 "/>
<polyline fill="none" stroke="#4B8F00" stroke-width="2.1801" stroke-linecap="round" stroke-linejoin="round" stroke-miterlimit="10" points="
	120.544,111.87 131.52,130.925 143.391,123.954 "/>
<path fill="none" stroke="#4B8F00" stroke-width="2.1801" stroke-linejoin="round" stroke-miterlimit="10" d="M209.759,145.43
	l6.298-13.219c0,0,4.196-5.089,4.719,0.506l-1.046,8.646l16.268-3.051l13.117-1.019c0,0,5.775,2.542,0,4.576l-14.165,4.066
	l-17.842,9.663"/>
<g>
	<path fill="#4B8F00" stroke="#4B8F00" stroke-width="0.6024" stroke-miterlimit="10" d="M49.367,53.131l-19.901,2.877
		c-1.915,0.277-3.245,2.016-2.961,3.872l6.034,39.185c0.286,1.855,2.081,3.146,3.997,2.867l19.899-2.875
		c1.923-0.279,3.247-2.018,2.963-3.876l-6.03-39.18C53.081,54.143,51.295,52.854,49.367,53.131L49.367,53.131z M28.514,62.402
		l23.698-3.425l4.478,29.092l-23.698,3.42L28.514,62.402z M29.701,57.538l19.901-2.874c1.05-0.152,2.033,0.55,2.186,1.562
		l0.188,1.225l-23.697,3.421l-0.19-1.218C27.934,58.637,28.656,57.69,29.701,57.538L29.701,57.538z M56.204,97.521L36.3,100.398
		c-1.047,0.152-2.019-0.551-2.172-1.564l-0.904-5.816l23.703-3.421l0.893,5.815C57.979,96.426,57.253,97.371,56.204,97.521
		L56.204,97.521z"/>
	<path fill="#4B8F00" stroke="#4B8F00" stroke-width="0.6024" stroke-miterlimit="10" d="M45.192,92.075
		c-1.742,0.249-2.945,1.832-2.682,3.516c0.254,1.69,1.884,2.861,3.623,2.61c1.748-0.252,2.953-1.836,2.69-3.523
		C48.567,92.99,46.938,91.823,45.192,92.075L45.192,92.075z M45.898,96.669c-0.869,0.121-1.682-0.461-1.812-1.307
		c-0.133-0.839,0.471-1.63,1.342-1.755c0.873-0.13,1.685,0.457,1.813,1.299C47.371,95.751,46.776,96.538,45.898,96.669
		L45.898,96.669z"/>
	<path fill="#4B8F00" stroke="#4B8F00" stroke-width="0.6024" stroke-miterlimit="10" d="M36.849,58.85l3.159-0.457
		c0.443-0.063,0.739-0.454,0.675-0.879c-0.065-0.421-0.473-0.713-0.909-0.65l-3.16,0.457c-0.438,0.062-0.735,0.458-0.672,0.879
		C36.008,58.624,36.409,58.913,36.849,58.85L36.849,58.85z"/>
	<path fill="#4B8F00" stroke="#4B8F00" stroke-width="0.6024" stroke-miterlimit="10" d="M42.378,58.054l0.792-0.115
		c0.435-0.063,0.736-0.456,0.67-0.88c-0.062-0.421-0.475-0.716-0.906-0.65l-0.789,0.111c-0.435,0.065-0.739,0.459-0.674,0.881
		C41.536,57.826,41.941,58.115,42.378,58.054L42.378,58.054z"/>
	<path fill="#4B8F00" stroke="#4B8F00" stroke-width="0.6024" stroke-miterlimit="10" d="M60.984,55.027
		c-0.353-0.255-0.856-0.183-1.121,0.163c-0.263,0.346-0.186,0.825,0.167,1.08c3.393,2.433,4.108,7.085,1.598,10.377
		c-0.261,0.341-0.191,0.823,0.167,1.078c0.178,0.126,0.393,0.173,0.593,0.143c0.204-0.03,0.394-0.129,0.525-0.306
		C65.951,63.598,65.086,57.97,60.984,55.027L60.984,55.027z"/>
	<path fill="#4B8F00" stroke="#4B8F00" stroke-width="0.6024" stroke-miterlimit="10" d="M57.923,57.25
		c-0.354-0.253-0.853-0.182-1.117,0.162c-0.262,0.345-0.184,0.825,0.165,1.081c1.127,0.806,1.854,1.991,2.063,3.335
		c0.211,1.341-0.139,2.681-0.967,3.767c-0.266,0.343-0.189,0.828,0.166,1.083c0.181,0.127,0.395,0.171,0.592,0.143
		c0.203-0.027,0.399-0.135,0.526-0.305c1.085-1.42,1.53-3.166,1.262-4.915C60.344,59.848,59.391,58.298,57.923,57.25L57.923,57.25z"
		/>
	<path fill="#4B8F00" stroke="#4B8F00" stroke-width="0.6024" stroke-miterlimit="10" d="M20.215,62.023
		c0.264-0.344,0.19-0.823-0.167-1.08c-0.353-0.254-0.851-0.185-1.111,0.163c-3.034,3.971-2.172,9.593,1.929,12.534
		c0.179,0.128,0.393,0.17,0.587,0.143c0.208-0.027,0.397-0.13,0.526-0.303c0.262-0.344,0.19-0.827-0.162-1.083
		C18.425,69.966,17.706,65.312,20.215,62.023L20.215,62.023z"/>
	<path fill="#4B8F00" stroke="#4B8F00" stroke-width="0.6024" stroke-miterlimit="10" d="M23.615,61.992
		c-0.355-0.258-0.856-0.183-1.121,0.162c-1.088,1.421-1.534,3.168-1.263,4.919c0.269,1.75,1.225,3.296,2.691,4.346
		c0.178,0.125,0.389,0.173,0.59,0.144c0.203-0.031,0.398-0.133,0.531-0.308c0.26-0.345,0.185-0.822-0.166-1.079
		c-1.128-0.806-1.863-1.987-2.068-3.331c-0.205-1.341,0.138-2.684,0.976-3.771C24.044,62.729,23.97,62.244,23.615,61.992
		L23.615,61.992z"/>
</g>
<path fill="none" stroke="#4B8F00" stroke-width="2.1801" stroke-miterlimit="10" d="M60.616,103.737c0,0,6.821-5.593,5.771-11.693
	c-1.046-6.102-6.3-12.204-6.3-12.204s-6.293-6.099-5.243-2.032c1.053,4.066,3.15,9.15,3.15,9.15l-2.546,2.637"/>
<path fill="#FFFFFF" stroke="#4B8F00" stroke-width="2.1801" stroke-miterlimit="10" d="M25.032,82.893c0,0,3.147-6.101,5.777-6.101
	c2.617,0,3.668-0.004,2.095,4.065c0,0,4.724,2.033,1.573,6.61c-3.147,4.576,4.198,1.019-3.147,4.576c-7.348,3.561,0,0,0,0
	l0.268,7.499C31.598,99.543,22.408,99.67,25.032,82.893z"/>
<line fill="none" stroke="#4B8F00" stroke-width="1.6642" stroke-miterlimit="10" x1="38.147" y1="101.195" x2="46.024" y2="104.755"/>
<g>
	<path fill="#4B8F00" d="M272,343.438c0,4.177-3.387,7.562-7.564,7.562H79.564c-4.177,0-7.564-3.387-7.564-7.562v-39.873
		c0-4.178,3.387-7.563,7.564-7.563h184.872c4.177,0,7.564,3.388,7.564,7.563V343.438z"/>
	<path fill="none" stroke="#FFFFFF" stroke-width="3" stroke-miterlimit="10" d="M271.5,343.938c0,4.177-3.387,7.562-7.564,7.562
		H79.064c-4.177,0-7.564-3.387-7.564-7.562v-39.873c0-4.178,3.387-7.563,7.564-7.563h184.872c4.177,0,7.564,3.388,7.564,7.563
		V343.938z"/>
</g>
<g>
	<path fill="#4B8F00" d="M487,343.438c0,4.177-3.387,7.562-7.562,7.562H294.562c-4.177,0-7.562-3.387-7.562-7.562v-39.873
		c0-4.178,3.387-7.563,7.562-7.563h184.873c4.178,0,7.563,3.388,7.563,7.563L487,343.438L487,343.438z"/>
	<path fill="none" stroke="#FFFFFF" stroke-width="3" stroke-miterlimit="10" d="M486.5,343.938c0,4.177-3.387,7.562-7.562,7.562
		H294.062c-4.177,0-7.562-3.387-7.562-7.562v-39.873c0-4.178,3.387-7.563,7.562-7.563h184.873c4.178,0,7.563,3.388,7.563,7.563
		L486.5,343.938L486.5,343.938z"/>
</g>
<g>
	<path fill="#4B8F00" d="M272,411.438c0,4.177-3.387,7.562-7.564,7.562H79.564c-4.177,0-7.564-3.387-7.564-7.562v-39.873
		c0-4.178,3.387-7.563,7.564-7.563h184.872c4.177,0,7.564,3.387,7.564,7.563V411.438z"/>
	<path fill="none" stroke="#FFFFFF" stroke-width="3" stroke-miterlimit="10" d="M271.5,410.938c0,4.177-3.387,7.562-7.564,7.562
		H79.064c-4.177,0-7.564-3.387-7.564-7.562v-39.873c0-4.178,3.387-7.563,7.564-7.563h184.872c4.177,0,7.564,3.387,7.564,7.563
		V410.938z"/>
</g>
<g>
	<path fill="#4B8F00" d="M486,411.438c0,4.177-3.387,7.562-7.562,7.562H293.562c-4.177,0-7.562-3.387-7.562-7.562v-39.873
		c0-4.178,3.387-7.563,7.562-7.563h184.873c4.178,0,7.563,3.387,7.563,7.563L486,411.438L486,411.438z"/>
	<path fill="none" stroke="#FFFFFF" stroke-width="3" stroke-miterlimit="10" d="M486.5,410.938c0,4.177-3.387,7.562-7.562,7.562
		H294.062c-4.177,0-7.562-3.387-7.562-7.562v-39.873c0-4.178,3.387-7.563,7.562-7.563h184.873c4.178,0,7.563,3.387,7.563,7.563
		L486.5,410.938L486.5,410.938z"/>
</g>
<polyline fill="none" stroke="#4B8F00" stroke-width="2.1801" stroke-linecap="round" stroke-linejoin="round" stroke-miterlimit="10" points="
	131.52,130.925 131.777,136.341 117.067,171.438 126.878,182.535 136.682,174.277 137.972,138.147 142.878,135.569 "/>
<text transform="matrix(1 0 0 1 244.8379 71.1411)" fill="#4B8F00" font-family="'GenJyuuGothic-Heavy'" font-size="26.7246">Easy access from a </text>
<text transform="matrix(1 0 0 1 226.8745 100.9492)" fill="#4B8F00" font-family="'GenJyuuGothic-Heavy'" font-size="26.7246">dedicated application</text>
<text transform="matrix(1 0 0 1 137.3511 261.8779)" fill="#FFFFFF" font-family="'GenJyuuGothic-Heavy'" font-size="40.4592">Shared folder</text>
<text transform="matrix(1 0 0 1 122.3472 493.8779)" fill="#888888" font-family="'GenJyuuGothic-Heavy'" font-size="30">Secured transfer via SSL</text>
<text transform="matrix(1 0 0 1 104.3521 330.8047)" fill="#FFFFFF" font-family="'GenJyuuGothic-Heavy'" font-size="22">Internal use</text>
<text transform="matrix(1 0 0 1 344.3545 331.8047)" fill="#FFFFFF" font-family="'GenJyuuGothic-Heavy'" font-size="22">Factory</text>
<text transform="matrix(1 0 0 1 302.3506 397.8047)" fill="#FFFFFF" font-family="'GenJyuuGothic-Heavy'" font-size="22">At your client&apos;s</text>
<text transform="matrix(1 0 0 1 96.3516 397.8047)" fill="#FFFFFF" font-family="'GenJyuuGothic-Heavy'" font-size="22">On-the-move</text>
</svg>
