<?xml version="1.0" encoding="utf-8"?>
<!-- Generator: Adobe Illustrator 16.0.0, SVG Export Plug-In . SVG Version: 6.00 Build 0)  -->
<!DOCTYPE svg PUBLIC "-//W3C//DTD SVG 1.1//EN" "http://www.w3.org/Graphics/SVG/1.1/DTD/svg11.dtd">
<svg version="1.1" id="レイヤー_1" xmlns="http://www.w3.org/2000/svg" xmlns:xlink="http://www.w3.org/1999/xlink" x="0px"
	 y="0px" width="370px" height="85px" viewBox="0 0 370 85" enable-background="new 0 0 370 85" xml:space="preserve">
<g>
	<path d="M107.985,30.894v8.056c0,1.412,0.217,2.323,0.639,2.714c0.44,0.383,1.434,0.588,3.001,0.588h0.276v1.057h-10.77v-1.057
		h0.313c1.224,0,2.025-0.218,2.405-0.635c0.38-0.425,0.561-1.306,0.561-2.667V22.062c0-1.377-0.181-2.27-0.555-2.682
		c-0.373-0.414-1.175-0.615-2.411-0.615h-0.313V17.71h17.905l0.561,4.755h-1.332l-0.047-0.352c-0.211-1.459-0.657-2.348-1.326-2.668
		c-0.645-0.322-2.369-0.481-5.147-0.481h-3.761v10.885h3.99c1.875,0,3.08-0.158,3.61-0.456c0.53-0.31,0.795-1.006,0.795-2.097
		v-0.289h1.332v6.737h-1.332v-0.252c0-0.985-0.222-1.682-0.668-2.104c-0.337-0.319-1.579-0.494-3.737-0.494H107.985z"/>
	<path d="M137.866,40.181c-1.175,1.223-2.375,2.132-3.61,2.742c-1.223,0.606-2.477,0.908-3.766,0.908
		c-1.941,0-3.375-0.592-4.273-1.77c-0.916-1.172-1.368-3.013-1.368-5.53v-4.857c0-1.666-0.109-2.72-0.332-3.171
		c-0.224-0.437-0.862-0.873-1.923-1.294l-0.994-0.435v-0.258l6.539-2.2v11.113c0,2.402,0.265,3.993,0.802,4.782
		c0.536,0.784,1.458,1.187,2.784,1.187c1.066,0,2.013-0.168,2.845-0.505c0.825-0.328,1.922-0.979,3.296-1.95v-7.32
		c0-1.63-0.115-2.668-0.337-3.119c-0.235-0.437-0.868-0.873-1.922-1.294l-0.994-0.435v-0.258l6.532-2.2v14.698
		c0,0.872,0.235,1.468,0.699,1.775c0.458,0.319,1.326,0.471,2.604,0.471h0.132v1.052l-6.714,1.518V40.181z"/>
	<path d="M159.448,41.061v1.522c-1.446,0.832-2.965,1.248-4.567,1.248c-2.001,0-3.436-0.561-4.286-1.688
		c-0.862-1.13-1.284-3.031-1.284-5.683V26.055h-3.225l6.509-5.906v4.688h6.226v1.253h-6.226v9.854c0,2.186,0.307,3.765,0.922,4.75
		c0.621,0.986,1.604,1.489,2.959,1.489C157.194,42.183,158.194,41.814,159.448,41.061"/>
	<path d="M177.227,40.181c-1.169,1.223-2.374,2.132-3.604,2.742c-1.235,0.606-2.489,0.908-3.767,0.908
		c-1.94,0-3.375-0.592-4.279-1.77c-0.91-1.172-1.356-3.013-1.356-5.53v-4.857c0-1.666-0.121-2.72-0.337-3.171
		c-0.224-0.437-0.869-0.873-1.929-1.294l-0.994-0.435v-0.258l6.539-2.2v11.113c0,2.402,0.271,3.993,0.807,4.782
		c0.53,0.784,1.453,1.187,2.778,1.187c1.067,0,2.019-0.168,2.845-0.505c0.838-0.328,1.928-0.979,3.296-1.95v-7.32
		c0-1.63-0.114-2.668-0.337-3.119c-0.235-0.437-0.868-0.873-1.923-1.294l-0.994-0.435v-0.258l6.545-2.2v14.698
		c0,0.872,0.229,1.468,0.693,1.775c0.458,0.319,1.326,0.471,2.598,0.471h0.139v1.052l-6.721,1.518V40.181z"/>
	<path d="M192.939,29.473v9.477c0,1.371,0.229,2.266,0.687,2.681c0.452,0.416,1.423,0.622,2.898,0.622h0.265v1.057h-10.57v-1.057
		h0.32c1.289,0,2.127-0.208,2.525-0.634c0.392-0.418,0.59-1.305,0.59-2.668v-7.275c0-1.619-0.121-2.646-0.355-3.077
		c-0.229-0.428-0.898-0.862-1.995-1.274l-1.048-0.411v-0.264l6.684-2.21v3.599c1.217-1.253,2.332-2.185,3.344-2.803
		c1.025-0.619,1.936-0.918,2.755-0.918c1.458,0,2.67,0.708,3.634,2.109l-2.591,2.729c-0.881-1.429-1.839-2.148-2.869-2.148
		c-0.929,0-2.224,0.729-3.905,2.171C193.258,29.204,193.131,29.315,192.939,29.473"/>
	<path d="M209.633,27.272c1.03-1.271,2.278-1.902,3.767-1.902c1.206,0,2.193,0.444,2.959,1.365c0.76,0.917,1.14,2.097,1.14,3.538
		c0,0.938-0.35,1.521-1.049,1.775c-0.705,0.247-2.375,0.373-5.015,0.373h-3.658C208.006,30.258,208.62,28.553,209.633,27.272
		 M215.201,41.793c-2.133,0-3.917-0.72-5.352-2.167c-1.439-1.44-2.163-3.236-2.163-5.371c0-0.146,0-0.4,0.023-0.792h13.428V32.94
		c0-2.718-0.669-4.827-2.024-6.354c-1.356-1.522-3.236-2.269-5.672-2.269c-2.706,0-4.954,0.92-6.75,2.772
		c-1.802,1.862-2.693,4.186-2.693,6.999c0,2.825,0.935,5.166,2.814,6.998c1.862,1.833,4.248,2.746,7.147,2.746
		c2.411,0,4.899-0.675,7.468-2.038v-1.587C219.306,41.261,217.227,41.793,215.201,41.793"/>
	<path d="M236.855,43.047l-0.422-5.61h1.362l0.055,0.268c0.349,1.703,1.072,3.022,2.188,3.951c1.103,0.928,2.507,1.392,4.213,1.392
		c1.536,0,2.862-0.495,3.965-1.474c1.091-0.986,1.651-2.166,1.651-3.552c0-1.739-1.416-3.52-4.249-5.337l-2.693-1.754
		c-2.622-1.685-4.333-3.008-5.135-3.951c-0.813-0.934-1.224-2.069-1.224-3.398c0-1.983,0.855-3.577,2.567-4.78
		c1.712-1.208,3.978-1.811,6.768-1.811c2.2,0,4.425,0.368,6.702,1.114l0.482,4.82h-1.362l-0.09-0.264
		c-0.935-3.082-3.08-4.625-6.431-4.625c-1.501,0-2.742,0.429-3.725,1.266c-0.988,0.847-1.482,1.917-1.482,3.213
		c0,1.636,1.217,3.235,3.634,4.809l3.894,2.491c2.416,1.573,4.02,2.823,4.778,3.755c0.754,0.922,1.134,2.08,1.134,3.48
		c0,2.149-0.874,3.857-2.616,5.135c-1.747,1.28-4.085,1.91-7.026,1.91C241.346,44.095,239.031,43.743,236.855,43.047"/>
	<path d="M265.742,27.541c0.916-0.352,1.809-0.533,2.663-0.533c1.893,0,3.437,0.719,4.635,2.153c1.2,1.435,1.796,3.298,1.796,5.584
		c0,2.305-0.596,4.188-1.777,5.677c-1.188,1.478-2.7,2.228-4.526,2.228c-0.994,0-2.001-0.245-3.025-0.73
		c-1.03-0.482-1.886-1.121-2.567-1.92V29.155C263.898,28.438,264.832,27.902,265.742,27.541 M265.254,43.662
		c0.771,0.112,1.531,0.169,2.278,0.169c3.218,0,5.846-0.961,7.853-2.872c2.008-1.911,3.014-4.406,3.014-7.48
		c0-2.657-0.754-4.854-2.284-6.58c-1.513-1.723-3.454-2.582-5.804-2.582c-1.151,0-2.345,0.277-3.58,0.848
		c-1.224,0.577-2.483,1.444-3.791,2.59v-3.438l-6.551,2.2v0.258l1.049,0.435c1.012,0.385,1.627,0.812,1.856,1.286
		c0.234,0.46,0.354,1.486,0.354,3.062v14.587c0,1.352-0.198,2.242-0.608,2.66c-0.397,0.426-1.229,0.634-2.525,0.634h-0.156v1.054
		h9.859v-1.054h-0.223c-1.254,0-2.073-0.208-2.478-0.634c-0.385-0.418-0.578-1.309-0.578-2.66v-3.001
		C263.717,43.367,264.488,43.546,265.254,43.662"/>
	<path d="M288.065,24.439V38.95c0,1.361,0.181,2.242,0.572,2.667c0.386,0.417,1.193,0.635,2.423,0.635h0.277v1.057h-9.865v-1.057
		h0.367c1.199,0,1.977-0.208,2.362-0.634c0.374-0.418,0.566-1.305,0.566-2.668v-7.247c0-1.662-0.108-2.683-0.302-3.067
		c-0.204-0.378-0.886-0.819-2.037-1.31l-0.916-0.413v-0.264L288.065,24.439z M285.89,22.062c-0.663,0-1.206-0.209-1.646-0.624
		c-0.446-0.417-0.663-0.921-0.663-1.546c0-0.609,0.217-1.121,0.663-1.543c0.439-0.425,0.982-0.639,1.646-0.639
		c0.65,0,1.193,0.214,1.645,0.639c0.44,0.422,0.657,0.934,0.657,1.543c0,0.625-0.217,1.129-0.657,1.546
		C287.083,21.854,286.54,22.062,285.89,22.062"/>
	<path d="M300.408,29.473v9.477c0,1.371,0.229,2.266,0.681,2.681c0.452,0.416,1.423,0.622,2.905,0.622h0.266v1.057h-10.565v-1.057
		h0.313c1.29,0,2.121-0.208,2.52-0.634c0.397-0.418,0.596-1.305,0.596-2.668v-7.275c0-1.619-0.12-2.646-0.355-3.077
		c-0.229-0.428-0.892-0.862-1.995-1.274l-1.042-0.411v-0.264l6.678-2.21v3.599c1.217-1.253,2.339-2.185,3.351-2.803
		c1.019-0.619,1.935-0.918,2.736-0.918c1.465,0,2.676,0.708,3.646,2.109l-2.592,2.729c-0.874-1.429-1.832-2.148-2.868-2.148
		c-0.923,0-2.23,0.729-3.906,2.171C300.733,29.204,300.606,29.315,300.408,29.473"/>
	<path d="M317.903,24.439V38.95c0,1.361,0.193,2.242,0.585,2.667c0.386,0.417,1.188,0.635,2.429,0.635h0.283v1.057h-9.871v-1.057
		h0.349c1.206,0,2.002-0.208,2.376-0.634c0.373-0.418,0.565-1.305,0.565-2.668v-7.247c0-1.662-0.108-2.683-0.307-3.067
		c-0.2-0.378-0.887-0.819-2.044-1.31l-0.91-0.413v-0.264L317.903,24.439z M315.734,22.062c-0.657,0-1.193-0.209-1.646-0.624
		c-0.44-0.417-0.663-0.921-0.663-1.546c0-0.609,0.223-1.121,0.663-1.543c0.452-0.425,0.988-0.639,1.646-0.639
		c0.645,0,1.199,0.214,1.639,0.639c0.446,0.422,0.669,0.934,0.669,1.543c0,0.625-0.223,1.129-0.669,1.546
		C316.934,21.854,316.379,22.062,315.734,22.062"/>
	<path d="M336.135,41.061v1.522c-1.452,0.832-2.982,1.248-4.574,1.248c-2.001,0-3.43-0.561-4.285-1.688
		c-0.868-1.13-1.29-3.031-1.29-5.683V26.055h-3.218l6.509-5.906v4.688h6.227v1.253h-6.227v9.854c0,2.186,0.308,3.765,0.922,4.75
		c0.614,0.986,1.609,1.489,2.947,1.489C333.875,42.183,334.869,41.814,336.135,41.061"/>
	<path d="M339.179,42.583l-0.423-4.751h1.399l0.061,0.328c0.494,3.079,2.134,4.616,4.924,4.616c1.199,0,2.242-0.355,3.104-1.057
		c0.855-0.714,1.283-1.571,1.283-2.559c0-0.612-0.211-1.164-0.657-1.624c-0.445-0.468-1.519-1.137-3.212-2.011l-1.664-0.858
		c-3.17-1.632-4.749-3.474-4.749-5.493c0-1.495,0.585-2.688,1.741-3.556c1.17-0.871,2.755-1.301,4.744-1.301
		c1.682,0,3.537,0.34,5.551,1.054v3.819h-1.398l-0.055-0.31c-0.084-0.531-0.198-0.977-0.331-1.36
		c-0.145-0.376-0.337-0.712-0.597-0.998c-0.271-0.292-0.639-0.551-1.115-0.795c-0.482-0.247-1.187-0.356-2.121-0.356
		c-0.971,0-1.778,0.263-2.398,0.792c-0.628,0.531-0.935,1.217-0.935,2.055c0,1.218,1.224,2.475,3.694,3.761l1.839,0.961
		c1.802,0.941,3.043,1.805,3.73,2.601c0.681,0.802,1.013,1.791,1.013,2.95c0,1.608-0.682,2.907-2.056,3.875
		c-1.356,0.976-3.164,1.465-5.4,1.465C342.789,43.831,340.801,43.415,339.179,42.583"/>
</g>
<rect x="284" y="56" fill="#72B12D" width="71" height="19"/>
<g>
	<path fill="#72B12D" d="M97.325,11.14c-47.096,1.173-79.792,14.745-82.991,23.79c-2.007,5.673,1.164,10.62,9.426,13.875
		c-0.037-0.249-0.07-0.495-0.081-0.731C22.217,24.852,97.325,11.14,97.325,11.14"/>
	<g>
		<g>
			<defs>
				<path id="SVGID_1_" d="M44.624,54.751c0,5.38,4.627,9.74,10.336,9.74c5.703,0,10.331-4.36,10.331-9.74
					c0-5.382-4.628-9.739-10.331-9.739C49.25,45.012,44.624,49.369,44.624,54.751"/>
			</defs>
			<clipPath id="SVGID_2_">
				<use xlink:href="#SVGID_1_"  overflow="visible"/>
			</clipPath>
			
				<radialGradient id="SVGID_3_" cx="-110.1704" cy="465.6719" r="0.2326" gradientTransform="matrix(70.1901 0 0 -66.1582 7791.6562 30856.0078)" gradientUnits="userSpaceOnUse">
				<stop  offset="0" style="stop-color:#FFFFFF"/>
				<stop  offset="1" style="stop-color:#0070B8"/>
			</radialGradient>
			<rect x="44.624" y="45.012" clip-path="url(#SVGID_2_)" fill="url(#SVGID_3_)" width="20.667" height="19.479"/>
		</g>
		<path fill="#94C054" d="M48.956,52.806c-1.598-0.02-3.273-0.081-5.058-0.19c-8.504-0.537-15.224-1.874-20.138-3.812
			c1.295,8.368,15.732,21.583,32.216,22.534C49.143,64.548,48.624,56.885,48.956,52.806"/>
		<path fill="#C0D896" d="M75.166,46.673c-3.311,2.186-8.135,4.623-16.4,5.643c1.197,4.022,2.163,11.322-2.741,19.021
			c5.152,0.291,10.507-0.622,15.724-3.265C78.234,59.21,76.531,50.611,75.166,46.673"/>
	</g>
</g>
<g>
	<path d="M103.031,70.625V60.604h6.87v1.695h-4.847v2.372h4.184v1.695h-4.184v4.259H103.031z"/>
	<path d="M116.334,70.625v-1.087c-0.264,0.388-0.612,0.692-1.042,0.916s-0.885,0.335-1.364,0.335c-0.488,0-0.925-0.107-1.312-0.321
		s-0.667-0.515-0.841-0.902s-0.26-0.923-0.26-1.606v-4.594h1.921v3.336c0,1.021,0.035,1.646,0.106,1.877
		c0.071,0.229,0.199,0.412,0.386,0.547c0.187,0.134,0.424,0.201,0.711,0.201c0.328,0,0.622-0.09,0.882-0.27
		c0.26-0.181,0.438-0.404,0.533-0.67c0.096-0.268,0.144-0.92,0.144-1.959v-3.062h1.921v7.26H116.334z"/>
	<path d="M120.107,70.625V60.604h1.921v10.021H120.107z"/>
	<path d="M123.997,70.625V60.604h1.921v10.021H123.997z"/>
	<path d="M127.668,67.952v-1.921h3.773v1.921H127.668z"/>
	<path d="M131.872,68.554l1.928-0.294c0.082,0.374,0.249,0.657,0.499,0.852c0.25,0.193,0.602,0.29,1.053,0.29
		c0.497,0,0.871-0.091,1.121-0.273c0.168-0.128,0.253-0.299,0.253-0.513c0-0.146-0.045-0.267-0.137-0.362
		c-0.096-0.091-0.31-0.176-0.643-0.253c-1.549-0.342-2.532-0.654-2.946-0.937c-0.574-0.392-0.861-0.937-0.861-1.634
		c0-0.629,0.249-1.157,0.745-1.586s1.267-0.643,2.311-0.643c0.994,0,1.732,0.162,2.215,0.485s0.816,0.802,0.998,1.436l-1.812,0.335
		c-0.078-0.282-0.225-0.499-0.441-0.649s-0.525-0.226-0.926-0.226c-0.506,0-0.868,0.07-1.087,0.212
		c-0.146,0.101-0.219,0.23-0.219,0.39c0,0.137,0.064,0.253,0.191,0.349c0.173,0.128,0.771,0.308,1.794,0.54s1.737,0.518,2.143,0.854
		c0.401,0.342,0.602,0.818,0.602,1.429c0,0.665-0.278,1.237-0.834,1.716s-1.378,0.718-2.468,0.718c-0.989,0-1.771-0.2-2.348-0.602
		S132.05,69.242,131.872,68.554z"/>
	<path d="M145.113,70.625v-1.087c-0.264,0.388-0.612,0.692-1.042,0.916s-0.885,0.335-1.364,0.335c-0.488,0-0.925-0.107-1.312-0.321
		s-0.667-0.515-0.841-0.902s-0.26-0.923-0.26-1.606v-4.594h1.921v3.336c0,1.021,0.035,1.646,0.106,1.877
		c0.071,0.229,0.199,0.412,0.386,0.547c0.187,0.134,0.424,0.201,0.711,0.201c0.328,0,0.622-0.09,0.882-0.27
		c0.26-0.181,0.438-0.404,0.533-0.67c0.096-0.268,0.144-0.92,0.144-1.959v-3.062h1.921v7.26H145.113z"/>
	<path d="M148.832,63.365h1.791v1.066c0.232-0.364,0.547-0.661,0.943-0.889s0.836-0.342,1.319-0.342c0.843,0,1.559,0.33,2.146,0.991
		s0.882,1.581,0.882,2.762c0,1.212-0.296,2.154-0.889,2.827c-0.592,0.672-1.31,1.008-2.153,1.008c-0.401,0-0.765-0.08-1.09-0.239
		s-0.669-0.433-1.029-0.82v3.657h-1.921V63.365z M150.732,66.872c0,0.815,0.162,1.419,0.485,1.808
		c0.324,0.391,0.718,0.585,1.183,0.585c0.447,0,0.818-0.179,1.114-0.536c0.296-0.358,0.444-0.945,0.444-1.761
		c0-0.761-0.153-1.326-0.458-1.695s-0.684-0.554-1.135-0.554c-0.469,0-0.859,0.182-1.169,0.543
		C150.887,65.625,150.732,66.161,150.732,66.872z"/>
	<path d="M157.384,63.365h1.791v1.066c0.232-0.364,0.547-0.661,0.943-0.889s0.836-0.342,1.319-0.342c0.843,0,1.559,0.33,2.146,0.991
		s0.882,1.581,0.882,2.762c0,1.212-0.296,2.154-0.889,2.827c-0.592,0.672-1.31,1.008-2.153,1.008c-0.401,0-0.765-0.08-1.09-0.239
		s-0.669-0.433-1.029-0.82v3.657h-1.921V63.365z M159.284,66.872c0,0.815,0.162,1.419,0.485,1.808
		c0.324,0.391,0.718,0.585,1.183,0.585c0.447,0,0.818-0.179,1.114-0.536c0.296-0.358,0.444-0.945,0.444-1.761
		c0-0.761-0.153-1.326-0.458-1.695s-0.684-0.554-1.135-0.554c-0.469,0-0.859,0.182-1.169,0.543
		C159.439,65.625,159.284,66.161,159.284,66.872z"/>
	<path d="M165.546,66.893c0-0.638,0.157-1.256,0.472-1.853s0.76-1.053,1.336-1.367s1.22-0.472,1.931-0.472
		c1.098,0,1.999,0.356,2.7,1.07c0.702,0.713,1.053,1.614,1.053,2.703c0,1.099-0.354,2.009-1.063,2.73
		c-0.708,0.723-1.601,1.084-2.676,1.084c-0.666,0-1.3-0.15-1.904-0.451s-1.063-0.742-1.377-1.322
		C165.703,68.434,165.546,67.727,165.546,66.893z M167.515,66.995c0,0.72,0.171,1.271,0.513,1.654s0.763,0.574,1.265,0.574
		s0.922-0.191,1.261-0.574s0.509-0.938,0.509-1.668c0-0.711-0.17-1.258-0.509-1.641s-0.76-0.574-1.261-0.574
		s-0.923,0.191-1.265,0.574S167.515,66.275,167.515,66.995z"/>
	<path d="M176.381,70.625h-1.921v-7.26h1.784v1.032c0.305-0.487,0.58-0.809,0.824-0.964s0.521-0.232,0.831-0.232
		c0.438,0,0.859,0.121,1.265,0.362l-0.595,1.675c-0.324-0.21-0.625-0.314-0.902-0.314c-0.269,0-0.497,0.074-0.684,0.223
		c-0.187,0.147-0.334,0.415-0.441,0.803s-0.161,1.198-0.161,2.434V70.625z"/>
	<path d="M183.319,63.365v1.531h-1.312v2.926c0,0.593,0.013,0.938,0.038,1.035c0.025,0.099,0.082,0.18,0.171,0.243
		s0.197,0.096,0.325,0.096c0.178,0,0.435-0.062,0.772-0.185l0.164,1.49c-0.447,0.191-0.953,0.287-1.518,0.287
		c-0.346,0-0.659-0.059-0.937-0.174c-0.278-0.117-0.482-0.268-0.612-0.451c-0.13-0.186-0.22-0.435-0.27-0.749
		c-0.041-0.224-0.062-0.675-0.062-1.354v-3.165h-0.882v-1.531h0.882v-1.442l1.928-1.121v2.563H183.319z"/>
	<path d="M190.381,70.625h-1.921v-7.26h1.784v1.032c0.306-0.487,0.58-0.809,0.824-0.964c0.243-0.155,0.521-0.232,0.83-0.232
		c0.438,0,0.859,0.121,1.265,0.362l-0.595,1.675c-0.323-0.21-0.624-0.314-0.902-0.314c-0.269,0-0.496,0.074-0.684,0.223
		c-0.187,0.147-0.334,0.415-0.44,0.803c-0.107,0.388-0.161,1.198-0.161,2.434V70.625z"/>
	<path d="M198.194,68.314l1.914,0.321c-0.246,0.702-0.635,1.236-1.165,1.603c-0.531,0.367-1.195,0.551-1.993,0.551
		c-1.262,0-2.196-0.412-2.803-1.237c-0.479-0.661-0.718-1.495-0.718-2.502c0-1.203,0.314-2.146,0.943-2.827
		c0.629-0.681,1.425-1.021,2.386-1.021c1.08,0,1.933,0.356,2.557,1.07c0.625,0.713,0.923,1.806,0.896,3.277h-4.812
		c0.014,0.569,0.169,1.013,0.465,1.33c0.297,0.316,0.666,0.475,1.107,0.475c0.301,0,0.554-0.082,0.759-0.246
		S198.09,68.679,198.194,68.314z M198.304,66.373c-0.014-0.556-0.157-0.979-0.431-1.268c-0.273-0.29-0.605-0.435-0.998-0.435
		c-0.419,0-0.766,0.152-1.039,0.458s-0.407,0.72-0.403,1.244H198.304z"/>
	<path d="M208.38,70.625h-1.921V66.92c0-0.784-0.041-1.291-0.123-1.521c-0.082-0.229-0.215-0.408-0.399-0.536
		s-0.407-0.191-0.667-0.191c-0.332,0-0.631,0.091-0.896,0.273c-0.264,0.183-0.445,0.424-0.543,0.725
		c-0.099,0.301-0.147,0.856-0.147,1.668v3.288h-1.921v-7.26h1.784v1.066c0.634-0.82,1.432-1.23,2.393-1.23
		c0.424,0,0.812,0.076,1.162,0.229c0.352,0.153,0.616,0.348,0.797,0.585c0.18,0.237,0.305,0.506,0.376,0.807
		c0.07,0.301,0.105,0.731,0.105,1.292V70.625z"/>
	<path d="M213.657,63.365v1.531h-1.312v2.926c0,0.593,0.013,0.938,0.038,1.035c0.024,0.099,0.082,0.18,0.171,0.243
		s0.197,0.096,0.324,0.096c0.178,0,0.436-0.062,0.772-0.185l0.164,1.49c-0.446,0.191-0.952,0.287-1.518,0.287
		c-0.346,0-0.658-0.059-0.937-0.174c-0.277-0.117-0.481-0.268-0.611-0.451c-0.13-0.186-0.22-0.435-0.271-0.749
		c-0.041-0.224-0.062-0.675-0.062-1.354v-3.165h-0.882v-1.531h0.882v-1.442l1.928-1.121v2.563H213.657z"/>
	<path d="M216.426,65.58l-1.743-0.314c0.196-0.702,0.533-1.222,1.012-1.559s1.189-0.506,2.133-0.506
		c0.857,0,1.495,0.102,1.914,0.305c0.42,0.202,0.715,0.46,0.886,0.771c0.171,0.312,0.256,0.886,0.256,1.72l-0.021,2.242
		c0,0.638,0.031,1.108,0.093,1.411c0.062,0.304,0.177,0.628,0.345,0.975h-1.9c-0.05-0.128-0.111-0.316-0.185-0.567
		c-0.031-0.114-0.055-0.189-0.068-0.226c-0.328,0.319-0.679,0.559-1.053,0.718c-0.373,0.159-0.772,0.239-1.196,0.239
		c-0.747,0-1.336-0.203-1.767-0.608s-0.646-0.918-0.646-1.538c0-0.41,0.099-0.775,0.294-1.098c0.196-0.32,0.471-0.566,0.824-0.738
		c0.353-0.17,0.862-0.319,1.527-0.447c0.898-0.169,1.521-0.326,1.866-0.472v-0.191c0-0.369-0.091-0.632-0.273-0.79
		c-0.182-0.156-0.526-0.235-1.032-0.235c-0.342,0-0.608,0.067-0.8,0.202C216.699,65.007,216.545,65.243,216.426,65.58z
		 M218.996,67.139c-0.246,0.082-0.636,0.18-1.169,0.294s-0.882,0.226-1.046,0.335c-0.25,0.178-0.376,0.403-0.376,0.677
		c0,0.269,0.101,0.501,0.301,0.697c0.201,0.196,0.456,0.294,0.766,0.294c0.347,0,0.677-0.114,0.991-0.342
		c0.232-0.173,0.386-0.385,0.458-0.636c0.051-0.164,0.075-0.477,0.075-0.937V67.139z"/>
	<path d="M222.776,70.625V60.604h1.921v10.021H222.776z"/>
	<path d="M229.879,68.554l1.928-0.294c0.082,0.374,0.249,0.657,0.499,0.852c0.251,0.193,0.602,0.29,1.053,0.29
		c0.497,0,0.871-0.091,1.121-0.273c0.169-0.128,0.253-0.299,0.253-0.513c0-0.146-0.045-0.267-0.137-0.362
		c-0.096-0.091-0.31-0.176-0.643-0.253c-1.549-0.342-2.531-0.654-2.946-0.937c-0.574-0.392-0.861-0.937-0.861-1.634
		c0-0.629,0.249-1.157,0.745-1.586c0.497-0.429,1.268-0.643,2.311-0.643c0.994,0,1.732,0.162,2.215,0.485
		c0.483,0.323,0.816,0.802,0.998,1.436l-1.812,0.335c-0.077-0.282-0.225-0.499-0.44-0.649c-0.217-0.15-0.525-0.226-0.927-0.226
		c-0.506,0-0.868,0.07-1.087,0.212c-0.146,0.101-0.219,0.23-0.219,0.39c0,0.137,0.064,0.253,0.191,0.349
		c0.174,0.128,0.771,0.308,1.795,0.54c1.022,0.232,1.737,0.518,2.143,0.854c0.401,0.342,0.602,0.818,0.602,1.429
		c0,0.665-0.277,1.237-0.834,1.716c-0.556,0.479-1.378,0.718-2.468,0.718c-0.988,0-1.771-0.2-2.348-0.602
		C230.434,69.786,230.057,69.242,229.879,68.554z"/>
	<path d="M242.546,68.314l1.914,0.321c-0.246,0.702-0.635,1.236-1.165,1.603c-0.531,0.367-1.195,0.551-1.993,0.551
		c-1.262,0-2.196-0.412-2.803-1.237c-0.479-0.661-0.718-1.495-0.718-2.502c0-1.203,0.314-2.146,0.943-2.827
		c0.629-0.681,1.425-1.021,2.386-1.021c1.08,0,1.933,0.356,2.557,1.07c0.625,0.713,0.923,1.806,0.896,3.277h-4.812
		c0.014,0.569,0.169,1.013,0.465,1.33c0.297,0.316,0.666,0.475,1.107,0.475c0.301,0,0.554-0.082,0.759-0.246
		S242.441,68.679,242.546,68.314z M242.655,66.373c-0.014-0.556-0.157-0.979-0.431-1.268c-0.273-0.29-0.605-0.435-0.998-0.435
		c-0.419,0-0.766,0.152-1.039,0.458s-0.407,0.72-0.403,1.244H242.655z"/>
	<path d="M247.967,70.625h-1.921v-7.26h1.784v1.032c0.306-0.487,0.58-0.809,0.824-0.964c0.243-0.155,0.521-0.232,0.83-0.232
		c0.438,0,0.859,0.121,1.265,0.362l-0.595,1.675c-0.323-0.21-0.624-0.314-0.902-0.314c-0.269,0-0.496,0.074-0.684,0.223
		c-0.187,0.147-0.334,0.415-0.44,0.803c-0.107,0.388-0.161,1.198-0.161,2.434V70.625z"/>
	<path d="M253.572,70.625l-2.926-7.26h2.017l1.367,3.705l0.396,1.237c0.105-0.314,0.171-0.521,0.198-0.622
		c0.064-0.205,0.133-0.41,0.205-0.615l1.381-3.705h1.976l-2.885,7.26H253.572z"/>
	<path d="M263.566,68.314l1.914,0.321c-0.246,0.702-0.635,1.236-1.165,1.603c-0.531,0.367-1.195,0.551-1.993,0.551
		c-1.262,0-2.196-0.412-2.803-1.237c-0.479-0.661-0.718-1.495-0.718-2.502c0-1.203,0.314-2.146,0.943-2.827
		c0.629-0.681,1.425-1.021,2.386-1.021c1.08,0,1.933,0.356,2.557,1.07c0.625,0.713,0.923,1.806,0.896,3.277h-4.812
		c0.014,0.569,0.169,1.013,0.465,1.33c0.297,0.316,0.666,0.475,1.107,0.475c0.301,0,0.554-0.082,0.759-0.246
		S263.462,68.679,263.566,68.314z M263.676,66.373c-0.014-0.556-0.157-0.979-0.431-1.268c-0.273-0.29-0.605-0.435-0.998-0.435
		c-0.419,0-0.766,0.152-1.039,0.458s-0.407,0.72-0.403,1.244H263.676z"/>
	<path d="M268.987,70.625h-1.921v-7.26h1.784v1.032c0.306-0.487,0.58-0.809,0.824-0.964c0.243-0.155,0.521-0.232,0.83-0.232
		c0.438,0,0.859,0.121,1.265,0.362l-0.595,1.675c-0.323-0.21-0.624-0.314-0.902-0.314c-0.269,0-0.497,0.074-0.684,0.223
		c-0.187,0.147-0.334,0.415-0.441,0.803c-0.106,0.388-0.16,1.198-0.16,2.434V70.625z"/>
	<path d="M271.92,68.554l1.928-0.294c0.082,0.374,0.248,0.657,0.499,0.852c0.251,0.193,0.602,0.29,1.053,0.29
		c0.497,0,0.87-0.091,1.121-0.273c0.169-0.128,0.253-0.299,0.253-0.513c0-0.146-0.046-0.267-0.137-0.362
		c-0.096-0.091-0.31-0.176-0.643-0.253c-1.55-0.342-2.531-0.654-2.946-0.937c-0.574-0.392-0.861-0.937-0.861-1.634
		c0-0.629,0.248-1.157,0.745-1.586s1.267-0.643,2.311-0.643c0.993,0,1.731,0.162,2.215,0.485s0.815,0.802,0.998,1.436l-1.812,0.335
		c-0.077-0.282-0.225-0.499-0.44-0.649c-0.217-0.15-0.525-0.226-0.927-0.226c-0.506,0-0.868,0.07-1.087,0.212
		c-0.146,0.101-0.219,0.23-0.219,0.39c0,0.137,0.063,0.253,0.191,0.349c0.173,0.128,0.771,0.308,1.795,0.54
		c1.022,0.232,1.737,0.518,2.143,0.854c0.401,0.342,0.602,0.818,0.602,1.429c0,0.665-0.278,1.237-0.834,1.716
		s-1.379,0.718-2.468,0.718c-0.989,0-1.771-0.2-2.349-0.602C272.475,69.786,272.098,69.242,271.92,68.554z"/>
</g>
<g>
	<path fill="#FFFFFF" d="M291.988,70.625V60.604h3.028l1.818,6.836l1.798-6.836h3.035v10.021h-1.88v-7.889l-1.989,7.889h-1.948
		l-1.982-7.889v7.889H291.988z"/>
	<path fill="#FFFFFF" d="M305.1,65.58l-1.743-0.314c0.196-0.702,0.533-1.222,1.012-1.559s1.189-0.506,2.133-0.506
		c0.857,0,1.495,0.102,1.914,0.305c0.42,0.202,0.715,0.46,0.886,0.771c0.171,0.312,0.256,0.886,0.256,1.72l-0.021,2.242
		c0,0.638,0.031,1.108,0.093,1.411c0.062,0.304,0.177,0.628,0.345,0.975h-1.9c-0.05-0.128-0.111-0.316-0.185-0.567
		c-0.031-0.114-0.055-0.189-0.068-0.226c-0.328,0.319-0.679,0.559-1.053,0.718c-0.373,0.159-0.772,0.239-1.196,0.239
		c-0.747,0-1.336-0.203-1.767-0.608s-0.646-0.918-0.646-1.538c0-0.41,0.099-0.775,0.294-1.098c0.196-0.32,0.471-0.566,0.824-0.738
		c0.353-0.17,0.862-0.319,1.527-0.447c0.898-0.169,1.521-0.326,1.866-0.472v-0.191c0-0.369-0.091-0.632-0.273-0.79
		c-0.182-0.156-0.526-0.235-1.032-0.235c-0.342,0-0.608,0.067-0.8,0.202C305.373,65.007,305.219,65.243,305.1,65.58z M307.67,67.139
		c-0.246,0.082-0.636,0.18-1.169,0.294s-0.882,0.226-1.046,0.335c-0.25,0.178-0.376,0.403-0.376,0.677
		c0,0.269,0.101,0.501,0.301,0.697c0.201,0.196,0.456,0.294,0.766,0.294c0.347,0,0.677-0.114,0.991-0.342
		c0.232-0.173,0.386-0.385,0.458-0.636c0.051-0.164,0.075-0.477,0.075-0.937V67.139z"/>
	<path fill="#FFFFFF" d="M311.45,70.625V60.604h1.921v10.021H311.45z"/>
	<path fill="#FFFFFF" d="M316.775,65.58l-1.743-0.314c0.196-0.702,0.533-1.222,1.012-1.559s1.189-0.506,2.133-0.506
		c0.857,0,1.495,0.102,1.914,0.305c0.42,0.202,0.715,0.46,0.886,0.771c0.171,0.312,0.256,0.886,0.256,1.72l-0.021,2.242
		c0,0.638,0.031,1.108,0.093,1.411c0.062,0.304,0.177,0.628,0.345,0.975h-1.9c-0.05-0.128-0.111-0.316-0.185-0.567
		c-0.031-0.114-0.055-0.189-0.068-0.226c-0.328,0.319-0.679,0.559-1.053,0.718c-0.373,0.159-0.772,0.239-1.196,0.239
		c-0.747,0-1.336-0.203-1.767-0.608s-0.646-0.918-0.646-1.538c0-0.41,0.099-0.775,0.294-1.098c0.196-0.32,0.471-0.566,0.824-0.738
		c0.353-0.17,0.862-0.319,1.527-0.447c0.898-0.169,1.521-0.326,1.866-0.472v-0.191c0-0.369-0.091-0.632-0.273-0.79
		c-0.182-0.156-0.526-0.235-1.032-0.235c-0.342,0-0.608,0.067-0.8,0.202C317.049,65.007,316.895,65.243,316.775,65.58z
		 M319.346,67.139c-0.246,0.082-0.636,0.18-1.169,0.294s-0.882,0.226-1.046,0.335c-0.25,0.178-0.376,0.403-0.376,0.677
		c0,0.269,0.101,0.501,0.301,0.697c0.201,0.196,0.456,0.294,0.766,0.294c0.347,0,0.677-0.114,0.991-0.342
		c0.232-0.173,0.386-0.385,0.458-0.636c0.051-0.164,0.075-0.477,0.075-0.937V67.139z"/>
	<path fill="#FFFFFF" d="M322.217,63.365h2.044l1.736,5.154l1.695-5.154h1.989l-2.563,6.986l-0.458,1.265
		c-0.168,0.424-0.329,0.747-0.481,0.971c-0.153,0.224-0.328,0.404-0.526,0.544c-0.198,0.139-0.442,0.247-0.731,0.324
		c-0.29,0.077-0.616,0.116-0.981,0.116c-0.369,0-0.731-0.039-1.087-0.116l-0.171-1.504c0.301,0.06,0.572,0.089,0.813,0.089
		c0.447,0,0.777-0.131,0.991-0.394c0.215-0.262,0.379-0.596,0.492-1.001L322.217,63.365z"/>
	<path fill="#FFFFFF" d="M330.235,68.554l1.928-0.294c0.082,0.374,0.249,0.657,0.499,0.852c0.251,0.193,0.602,0.29,1.053,0.29
		c0.497,0,0.871-0.091,1.121-0.273c0.169-0.128,0.253-0.299,0.253-0.513c0-0.146-0.045-0.267-0.137-0.362
		c-0.096-0.091-0.31-0.176-0.643-0.253c-1.549-0.342-2.531-0.654-2.946-0.937c-0.574-0.392-0.861-0.937-0.861-1.634
		c0-0.629,0.249-1.157,0.745-1.586c0.497-0.429,1.268-0.643,2.311-0.643c0.994,0,1.732,0.162,2.215,0.485
		c0.483,0.323,0.816,0.802,0.998,1.436l-1.812,0.335c-0.077-0.282-0.225-0.499-0.44-0.649c-0.217-0.15-0.525-0.226-0.927-0.226
		c-0.506,0-0.868,0.07-1.087,0.212c-0.146,0.101-0.219,0.23-0.219,0.39c0,0.137,0.064,0.253,0.191,0.349
		c0.174,0.128,0.771,0.308,1.795,0.54c1.022,0.232,1.737,0.518,2.143,0.854c0.401,0.342,0.602,0.818,0.602,1.429
		c0,0.665-0.277,1.237-0.834,1.716c-0.556,0.479-1.378,0.718-2.468,0.718c-0.988,0-1.771-0.2-2.348-0.602
		C330.79,69.786,330.413,69.242,330.235,68.554z"/>
	<path fill="#FFFFFF" d="M338.698,62.381v-1.777h1.921v1.777H338.698z M338.698,70.625v-7.26h1.921v7.26H338.698z"/>
	<path fill="#FFFFFF" d="M344.023,65.58l-1.743-0.314c0.196-0.702,0.533-1.222,1.012-1.559s1.189-0.506,2.133-0.506
		c0.857,0,1.495,0.102,1.914,0.305c0.42,0.202,0.715,0.46,0.886,0.771c0.171,0.312,0.256,0.886,0.256,1.72l-0.021,2.242
		c0,0.638,0.031,1.108,0.093,1.411c0.062,0.304,0.177,0.628,0.345,0.975h-1.9c-0.05-0.128-0.111-0.316-0.185-0.567
		c-0.031-0.114-0.055-0.189-0.068-0.226c-0.328,0.319-0.679,0.559-1.053,0.718c-0.373,0.159-0.772,0.239-1.196,0.239
		c-0.747,0-1.336-0.203-1.767-0.608s-0.646-0.918-0.646-1.538c0-0.41,0.099-0.775,0.294-1.098c0.196-0.32,0.471-0.566,0.824-0.738
		c0.353-0.17,0.862-0.319,1.527-0.447c0.898-0.169,1.521-0.326,1.866-0.472v-0.191c0-0.369-0.091-0.632-0.273-0.79
		c-0.182-0.156-0.526-0.235-1.032-0.235c-0.342,0-0.608,0.067-0.8,0.202C344.297,65.007,344.143,65.243,344.023,65.58z
		 M346.594,67.139c-0.246,0.082-0.636,0.18-1.169,0.294s-0.882,0.226-1.046,0.335c-0.25,0.178-0.376,0.403-0.376,0.677
		c0,0.269,0.101,0.501,0.301,0.697c0.201,0.196,0.456,0.294,0.766,0.294c0.347,0,0.677-0.114,0.991-0.342
		c0.232-0.173,0.386-0.385,0.458-0.636c0.051-0.164,0.075-0.477,0.075-0.937V67.139z"/>
</g>
</svg>
